<svg width="800" height="241" viewBox="0 0 800 241" fill="none" xmlns="http://www.w3.org/2000/svg">
<path d="M475.327 81.7081C475.527 83.5307 475.255 100.83 475.004 102.256C474.86 103.078 474.613 104.759 474.456 105.992C474.299 107.225 474.026 108.906 473.85 109.728C473.673 110.55 473.393 111.895 473.228 112.716C472.954 114.082 472.694 115.128 471.927 117.947C471.531 119.404 469.995 124.052 469.622 124.921C467.856 129.035 465.019 134.709 463.127 137.912C461.384 140.862 455.77 148.221 452.814 151.429C448.246 156.387 442.814 160.902 436.243 165.203C431.402 168.372 428.352 170.012 422.763 172.455C415.043 175.83 408.593 177.74 399.507 179.342C398.616 179.499 397.383 179.73 396.767 179.855C395.459 180.12 392.394 180.52 389.046 180.863C387.745 180.997 383.654 181.172 379.955 181.253C372.273 181.422 368.16 181.166 360.653 180.055C358.832 179.785 358.403 179.708 355.298 179.1C347.757 177.623 340.631 175.426 335.248 172.919C334.084 172.377 332.179 171.518 331.014 171.012C324.481 168.172 316.484 162.977 309.93 157.317C305.242 153.268 300.441 148.758 300.441 148.225C300.441 148.05 301.133 147.346 301.75 146.66C304.637 143.45 310.185 134.545 311.958 130.275C312.328 129.385 312.786 128.32 312.976 127.909C313.615 126.522 315.605 121.198 316.234 119.192C319.128 109.958 320.006 104.14 320.466 91.1725C320.63 86.5668 320.413 83.2533 319.507 76.4778C318.809 71.2631 318.717 70.7545 317.946 67.8851C317.578 66.5152 317.182 65.0022 317.067 64.5227C316.801 63.4132 316.287 61.8722 315.447 59.666C315.082 58.7071 314.698 57.5863 314.594 57.1754C314.49 56.7644 314.163 55.9565 313.868 55.3796C313.572 54.8028 313.331 54.2093 313.331 54.0606C313.331 53.9119 312.939 52.9523 312.459 51.9281C311.98 50.904 311.587 49.9667 311.587 49.8449C311.587 49.6073 310.42 47.505 308.395 44.0996C305.431 39.1113 301.095 33.3898 300.279 33.3898C299.127 33.3898 291.918 44.3877 288.872 50.7916C285.997 56.8344 283.179 64.8844 282.103 70.1267C281.468 73.2155 281.202 74.8693 281.197 75.7455C281.194 76.2168 281.029 77.4989 280.83 78.5948C280.03 82.9938 280.098 97.3547 280.943 102.722C281.075 103.561 281.308 105.257 281.461 106.49C281.726 108.628 282.251 111.354 282.709 112.966C282.825 113.376 283.104 114.441 283.327 115.332C283.551 116.222 283.886 117.399 284.071 117.947C285.793 123.032 287.603 127.591 289.41 131.396C291.129 135.014 295.536 142.169 297.746 144.929C299.243 146.797 299.874 147.485 300.098 148.225C299.803 148.786 298.798 149.659 297.171 151.405C292.085 156.859 285.125 162.295 276.968 167.185C274.411 168.718 269.756 171.122 269.345 171.122C269.289 171.122 267.983 171.692 266.443 172.389C258.893 175.804 251.929 177.824 241.103 179.74C232.898 181.191 220.794 181.714 212.709 180.965C205.88 180.333 203.448 179.968 197.641 178.702C195.997 178.344 194.204 177.956 193.656 177.84C185.639 176.144 172.485 170.446 164.633 165.267C161.845 163.428 157.398 160.199 156.919 159.665C156.851 159.588 155.786 158.673 154.553 157.632C151.723 155.241 146.797 150.186 144.763 147.585C143.906 146.489 142.892 145.201 142.51 144.721C139.317 140.715 134.168 131.522 131.977 125.917C131.115 123.71 129.612 119.015 128.908 116.328C128.531 114.89 128.127 113.376 128.012 112.966C127.783 112.153 126.77 107.124 126.632 106.116C125.552 98.2377 125.179 92.8295 125.373 87.8565C125.55 83.3039 125.892 79.0628 126.26 76.8514C126.397 76.0295 126.633 74.5724 126.785 73.6135C127.072 71.8019 127.321 70.6614 128.39 66.2662C129.639 61.1315 131.137 56.6013 132.663 53.3488C133.264 52.0661 133.756 50.9844 133.756 50.9446C133.756 50.9047 134.164 50.1607 134.663 49.2915C135.161 48.4223 136.066 46.7583 136.675 45.5939C138.312 42.4595 140.718 38.8326 144.357 34.0125C150.889 25.3615 162.4 16.3173 174.478 10.3458C181.559 6.84469 184.334 5.82205 192.037 3.87562C200.523 1.73119 205.021 0.995698 214.079 0.270925C224.216 -0.540274 238.884 0.520242 248.823 2.78273C254.208 4.00837 263.366 6.87832 265.855 8.12015C266.256 8.3199 266.674 8.48353 266.785 8.48353C267.206 8.48353 275.452 12.672 277.715 14.0351C282.287 16.7898 287.448 20.4483 290.79 23.3028C291.752 24.1247 293.184 25.3394 293.972 26.0021C294.76 26.6649 296.437 28.3461 297.699 29.7381C298.961 31.1301 300.178 32.3029 300.403 32.3443C300.662 32.3918 301.441 31.6666 302.517 30.3767C305.504 26.7956 311.351 21.6851 316.955 17.7569C321.472 14.5911 324.253 12.9547 329.022 10.6581C337.194 6.72216 341.828 5.13313 352.06 2.75707C355.681 1.91623 359.29 1.42309 370.242 0.272171C373.436 -0.063566 383.105 -0.0615733 386.668 0.275409C391.137 0.69782 396.057 1.27365 397.346 1.52471C398.007 1.65347 398.891 1.75883 399.31 1.75883C399.729 1.75883 400.477 1.86891 400.972 2.00341C401.468 2.1379 403.778 2.70775 406.107 3.26964C416.108 5.68306 422.894 8.3057 431.511 13.0887C433.917 14.4242 441.007 19.1982 442.921 20.7721C451.012 27.424 453.798 30.347 458.976 37.6122C461.399 41.0112 463.765 44.6507 463.765 44.9785C463.765 45.0206 464.414 46.1573 465.207 47.504C466.755 50.1324 469.331 55.6576 470.238 58.2962C471.16 60.9803 472.741 66.5885 473.222 68.8813C473.394 69.7032 473.629 70.712 473.744 71.1229C474.049 72.2158 474.938 78.1654 475.327 81.7081ZM169.958 80.4573C169.754 80.6595 170.068 98.6145 170.342 102.38C170.477 104.23 170.766 107.2 170.986 108.981C171.205 110.761 171.49 113.171 171.619 114.335C172.594 123.156 174.344 129.982 178.173 139.906C180.155 145.044 183.374 150.783 186.963 155.577C189.004 158.304 194.279 163.271 196.953 164.984C201.763 168.065 207.733 170.483 212.211 171.164C213.102 171.3 214.447 171.518 215.2 171.649C217.574 172.062 225.336 172.206 227.653 171.879C233.226 171.094 235.96 170.456 239.235 169.179C247.187 166.077 251.237 163.041 257.537 155.461C261.284 150.953 266.388 141.042 268.327 134.509C268.862 132.707 270.194 127.424 270.995 123.924C271.402 122.145 272.298 117.472 272.403 116.577C272.459 116.097 272.665 114.584 272.86 113.215C273.753 106.961 273.813 105.453 273.824 88.9309C273.832 77.5567 273.747 71.9391 273.554 70.9984C273.399 70.245 273.082 68.1715 272.849 66.3907C272.34 62.5026 271.011 55.6145 270.11 52.1941C269.893 51.3722 269.658 50.4195 269.586 50.0771C269.378 49.0813 267.721 43.8014 267.347 42.9412C267.159 42.5095 267.005 42.0921 267.005 42.0134C267.005 41.7551 265.515 38.5452 264.147 35.8571C261.302 30.2668 258.573 26.4746 254.068 21.8473C250.377 18.0558 246.027 15.2067 239.733 12.4581C238.754 12.0304 234.97 11.013 233.257 10.7166C232.298 10.5508 230.706 10.2608 229.718 10.0721C227.315 9.61253 218.427 9.62399 214.919 10.091C204.578 11.4676 197.482 14.8446 190.329 21.793C185.541 26.4435 181.951 31.8554 178.586 39.4919C177.947 40.9442 175.991 46.0701 175.831 46.7147C175.729 47.1257 175.351 48.4146 174.992 49.5789C174.365 51.6106 173.214 56.0523 172.637 58.6698C172.327 60.0727 171.947 62.5013 171.603 65.2699C171.475 66.2973 171.204 68.4268 171 70.0021C170.795 71.5774 170.507 74.545 170.359 76.5968C170.21 78.6486 170.03 80.3858 169.958 80.4573ZM326.775 80.8364C326.516 87.315 326.726 100.212 327.166 104.746C327.711 110.378 328.521 116.611 329.026 119.068C329.153 119.684 329.377 120.917 329.524 121.807C330.3 126.508 332.135 133.765 333.68 138.245C335.433 143.331 340.399 152.045 344.041 156.427C348.721 162.059 352.206 164.893 357.815 167.629C364.533 170.907 370.464 172.191 378.78 172.169C386.59 172.147 392.317 170.839 399.147 167.516C403.854 165.226 406.341 163.457 410.237 159.628C413.003 156.909 414.009 155.711 415.747 153.065C416.916 151.284 418.242 149.154 418.693 148.332C419.144 147.511 419.7 146.502 419.929 146.091C421.436 143.384 425.062 133.432 426.328 128.532C428.098 121.677 429.643 112.876 429.643 109.647C429.643 108.922 429.755 107.579 429.891 106.662C430.643 101.604 430.63 79.9549 429.869 71.9946C429.372 66.7939 428.552 61.3255 427.759 57.9226C427.535 56.9637 427.265 55.7308 427.159 55.1829C427.052 54.6349 426.726 53.4021 426.435 52.4432C426.143 51.4843 425.808 50.3635 425.689 49.9525C423.088 40.9382 420.735 35.6107 416.637 29.4576C414.425 26.1381 413.305 24.7384 411.106 22.5459C407.16 18.6114 403.298 15.879 398.461 13.5983C394.364 11.6666 392.664 11.1557 387.178 10.2093C384.512 9.74928 383.451 9.70519 377.34 9.80207C370.294 9.91365 369.363 10.0193 364.762 11.2285C357.692 13.0867 351.905 16.4503 346.58 21.7955C342.835 25.5553 341.465 27.3132 338.84 31.7289C334.969 38.2389 332.864 43.4221 330.778 51.5715C330.463 52.8013 329.333 58.2478 329.176 59.2924C329.104 59.7719 328.83 61.453 328.566 63.0284C328.109 65.7623 327.874 67.6293 327.245 73.489C327.09 74.9273 326.879 78.2337 326.775 80.8364Z" fill="black"/>
<path d="M799.679 235.175C799.901 235.359 800 236.197 800 237.901C800 238.721 800 239.541 800 240.361C784.929 240.361 769.858 240.361 754.787 240.361C739.716 240.361 724.645 240.361 709.574 240.361C709.598 239.386 709.621 238.41 709.644 237.435C709.668 236.459 709.691 235.484 709.715 234.508C710.088 234.488 710.462 234.467 710.835 234.447C712.583 234.35 718.818 233.623 719.926 233.387C720.474 233.27 721.875 232.988 723.04 232.76C725.959 232.188 727.131 231.774 729.055 230.637C731.71 229.068 733.349 226.898 734.593 223.301C735.106 221.819 735.111 221.497 735.182 186.445C735.221 166.997 735.197 150.935 735.127 150.753C734.938 150.262 734.504 150.613 732.877 152.567C730.563 155.346 724.662 161.065 721.287 163.799C713.998 169.705 705.591 174.538 698.57 176.859C695.377 177.915 689.418 179.436 685.556 180.182C675.441 182.134 663.232 181.539 652.057 178.55C651.029 178.275 649.908 177.996 649.566 177.93C646.974 177.43 642.686 175.736 637.611 173.208C631.221 170.024 629.064 168.767 624.946 165.822C619.031 161.593 615.393 158.282 609.965 152.186C606.111 147.858 601.417 141.067 598.865 136.128C594.329 127.35 591.023 117.182 589.432 107.113C588.295 99.9142 587.93 93.1297 588.3 86.073C588.664 79.1488 588.854 77.5241 590.281 69.1305C590.871 65.6608 592.778 59.5555 594.598 55.3075C598.233 46.8259 599.039 45.2568 602.687 39.5602C605.632 34.9598 606.717 33.5052 610.077 29.654C612.95 26.3603 612.43 26.8801 616.584 23.1629C619.452 20.5973 624.78 16.4195 627.897 14.292C630.499 12.5167 639.231 8.10476 643.09 6.61511C648.103 4.68064 654.055 3.14766 662.891 1.5163C669.278 0.336982 683.27 0.342214 691.533 1.52726C694.056 1.88914 698.286 2.82388 700.25 3.45376C700.661 3.58551 701.502 3.83334 702.118 4.00469C704.643 4.7063 710.356 6.87215 712.454 7.9232C720.234 11.8205 727.707 17.1191 733.54 22.8747C735.332 24.6431 736.576 25.6889 736.792 25.6062C737.023 25.5173 737.252 24.6485 737.472 23.0177C737.655 21.6677 738.078 19.7786 738.412 18.8197C739.347 16.1375 739.756 14.9032 739.979 14.0875C740.092 13.6766 740.696 11.9954 741.322 10.3516C741.948 8.70775 742.462 7.17227 742.464 6.93915C742.467 6.40317 743.16 3.72175 743.342 3.53993C743.543 3.33894 756.915 3.1083 767.746 3.11926C770.901 3.1225 774.056 3.12549 777.211 3.12873C777.254 39.741 777.298 76.3533 777.341 112.966C777.434 191.78 777.549 223.049 777.745 223.674C778.765 226.921 779.993 228.97 781.653 230.196C783.097 231.262 785.364 232.265 787.422 232.747C788.381 232.971 789.562 233.26 790.046 233.39C791.827 233.865 794.925 234.384 796.015 234.39C797.345 234.397 799.228 234.801 799.679 235.175ZM632.469 77.4674C632.405 77.5321 632.398 81.5669 632.454 86.4336C632.609 99.96 633.227 105.213 635.871 115.456C638.257 124.7 640.63 129.953 645.545 136.876C648.717 141.344 654.79 147.251 659.279 150.238C665.981 154.695 672.261 157.274 679.454 158.522C680.755 158.748 682.361 159.042 683.022 159.174C684.628 159.497 694.509 159.486 697.012 159.159C698.108 159.015 700.35 158.719 701.994 158.501C710.164 157.416 720.231 153.424 726.241 148.887C729.931 146.101 734.587 141.252 734.983 139.783C735.144 139.184 735.238 120.435 735.25 86.3288C735.256 68.8184 735.262 51.3078 735.269 33.7974C734.455 32.9752 733.641 32.1531 732.828 31.3309C727.774 26.2236 722.315 22.2782 715.692 18.9465C710.79 16.4803 703.509 14.1861 697.137 13.1002C695.836 12.8783 694.23 12.5894 693.569 12.4581C692.908 12.3269 690.05 12.22 687.218 12.2205C680.251 12.2218 674.835 13.078 668.897 15.1171C662.146 17.4357 656.916 20.7644 651.222 26.3678C646.241 31.2684 641.704 37.9642 639.31 43.944C637.594 48.2298 635.269 56.5976 634.11 62.6548C633.697 64.8135 633.162 69.4871 632.869 73.4891C632.714 75.6123 632.534 77.4026 632.469 77.4674Z" fill="black"/>
<path d="M604.457 20.4386C604.716 23.1753 604.258 27.2587 603.459 29.3543C603.339 29.6689 603.24 30.0863 603.24 30.2816C603.24 30.4769 602.939 31.2843 602.571 32.0756C600.322 36.9117 595.584 40.9943 590.013 42.8979C587.806 43.6523 587.431 43.7029 583.376 43.7945C579.307 43.8864 578.948 43.8558 576.651 43.2174C574.138 42.5191 571.8 41.4536 568.498 39.5012C563.778 36.7107 560.437 35.5264 556.108 35.1094C553.125 34.822 552.993 34.831 550.442 35.485C543.028 37.3854 538.491 41.7676 533.826 51.5337C532.319 54.6875 531.94 55.5959 531.159 57.9226C530.1 61.0777 530.14 59.0491 530.14 108.981C530.14 149.157 530.195 156.803 530.494 158.171C531.911 164.654 535.672 167.536 544.461 168.875C545.489 169.031 546.946 169.276 547.699 169.418C548.452 169.56 550.862 169.735 553.054 169.806C555.246 169.878 557.179 170.048 557.35 170.186C557.565 170.358 557.662 171.276 557.662 173.142C557.662 174.044 557.662 174.946 557.662 175.848C541.784 175.87 525.906 175.891 510.028 175.913C483.83 175.949 462.143 175.937 461.835 175.887C461.298 175.8 461.274 175.694 461.274 173.34C461.274 170.25 461.309 170.22 465.135 170.009C470.989 169.686 477.038 168.651 480.078 167.453C482.7 166.42 484.043 165.556 485.309 164.089C487.55 161.491 488.116 159.28 488.395 152.027C488.698 144.116 488.558 34.8805 488.242 33.0163C488.102 32.1944 487.721 30.6278 487.396 29.5349C486.863 27.7474 486.641 27.382 485.184 25.8971C483.44 24.1185 482.273 23.4767 479.207 22.6097C477.492 22.1248 476.709 22.0804 469.673 22.0695C467.117 22.0655 464.562 22.0615 462.007 22.0575C462.03 21.0643 462.053 20.071 462.076 19.0777C462.1 18.0845 462.123 17.0912 462.146 16.0979C462.395 16.0387 462.644 15.9794 462.893 15.9201C463.304 15.8222 464.761 15.5002 466.131 15.204C468.607 14.6688 470.316 14.2875 473.291 13.6068C477.972 12.5361 482.002 11.6507 484.188 11.2128C484.804 11.0893 487.438 10.4813 490.041 9.8619C492.644 9.24248 495.278 8.63651 495.894 8.51522C496.51 8.39417 498.36 7.95632 500.003 7.54238C501.647 7.12843 504.337 6.49208 505.981 6.1277C513.49 4.46346 514.964 4.11876 519.057 3.0702C526.025 1.28491 528.916 0.682681 529.331 0.929752C529.434 0.991022 529.517 10.6206 529.517 22.329C529.517 41.7656 529.553 43.6309 529.923 43.7728C530.407 43.9584 531.04 43.2015 531.498 41.8919C532.186 39.9188 534.319 35.9652 536.372 32.8557C537.56 31.0557 538.985 28.8423 539.539 27.9372C542.857 22.5101 549.126 15.3597 554.194 11.2228C560.048 6.445 565.383 3.72723 572.605 1.84431C575.025 1.21343 575.593 1.16187 580.202 1.1534C585.536 1.14344 586.756 1.31903 590.509 2.63508C595.22 4.28687 598.67 6.83678 601.213 10.5453C602.799 12.8594 604.122 16.8947 604.457 20.4386Z" fill="black"/>
<path d="M141.979 18.197C143.172 23.6946 141.858 30.3356 138.709 34.7238C137.48 36.4369 134.727 39.0959 133.009 40.2299C130.864 41.6458 127.294 43.0391 124.609 43.5076C122.186 43.9305 116.817 43.8652 114.742 43.3873C112.793 42.9387 109.356 41.4697 106.45 39.8431C102.548 37.6591 99.513 36.2598 97.5175 35.7251C95.1171 35.0817 89.6989 35.0892 87.555 35.7388C82.0554 37.405 78.2503 40.395 74.527 45.975C73.0927 48.1249 70.8212 52.3336 70.2299 53.9376C69.7878 55.1368 69.5054 55.9968 69.2484 56.9263C69.0969 57.4743 68.7829 58.539 68.5505 59.2924C68.1597 60.5602 68.1281 64.2508 68.1281 108.856C68.1281 124.921 68.1281 140.985 68.1281 157.05C68.3084 157.714 68.489 158.378 68.6693 159.042C69.7704 163.095 70.6909 164.454 73.477 166.137C76.0829 167.712 79.1128 168.577 83.9436 169.127C84.971 169.244 86.5401 169.46 87.4305 169.606C88.3209 169.753 90.4185 169.873 92.0917 169.874C95.7768 169.877 95.6991 169.801 95.5963 173.302C95.5726 174.111 95.5487 174.92 95.525 175.729C79.6057 175.75 63.6865 175.772 47.7672 175.792C31.8478 175.813 15.9287 175.834 0.00931308 175.855C0.00931308 174.989 0.00931308 174.122 0.00931308 173.256C0.00931308 170.226 -0.372003 170.545 3.74526 170.131C15.9785 168.899 18.9169 168.061 22.3306 164.829C25.1537 162.156 25.9637 159.683 26.3908 152.434C26.673 147.646 26.6795 108.862 26.4068 58.0471C26.2496 28.7369 26.3829 30.8574 24.4825 27.4283C23.3401 25.3668 21.9221 24.0082 19.8355 22.975C17.6485 21.8924 15.6976 21.6941 7.16988 21.6884C4.94898 21.6869 2.72834 21.6854 0.507439 21.6839C0.508685 20.9574 0.509934 20.2311 0.511179 19.5046C0.515911 16.7141 0.786394 16.1544 2.25462 15.9019C3.72185 15.6493 4.88771 15.3918 9.22465 14.3619C14.7172 13.0576 19.0347 12.0691 21.9269 11.4539C23.3652 11.148 28.2406 9.97742 32.7611 8.8529C37.2816 7.72838 41.8208 6.61856 42.8482 6.38644C43.8756 6.15431 45.8369 5.69976 47.2068 5.37623C48.5766 5.0527 50.8742 4.54361 52.3126 4.24499C53.7509 3.94636 55.3761 3.54687 55.924 3.35683C56.4719 3.1668 57.1444 3.00889 57.4184 3.0059C57.6923 3.00291 58.645 2.77128 59.5354 2.49109C62.2218 1.64601 63.568 1.32796 65.2031 1.15312C66.6887 0.994214 66.7714 1.01439 66.9881 1.58425C67.1156 1.91999 67.2516 11.1391 67.2982 22.6219C67.3438 33.8641 67.4489 43.1302 67.5321 43.2132C67.9458 43.6266 68.56 42.7733 70.3497 39.2986C71.4239 37.2132 72.8869 34.6103 73.6008 33.5144C74.3146 32.4185 75.6727 30.3074 76.6191 28.8233C79.4034 24.4562 81.8019 21.3626 85.3117 17.6117C88.9709 13.7014 90.4252 12.3804 93.9061 9.80532C98.4919 6.41308 101.334 4.90351 106.416 3.16231C110.463 1.77553 112.67 1.30704 116.071 1.11227C119.219 0.931948 125.528 1.58475 127.156 2.25871C127.567 2.42882 128.127 2.65721 128.401 2.76605C133.489 4.7882 136.497 7.13586 139.151 11.1535C140.645 13.416 141.291 15.0259 141.979 18.197Z" fill="black"/>
</svg>
